<svg xmlns="http://www.w3.org/2000/svg" viewBox="0 9.470000267028809 427.7799987792969 45.72999954223633" data-asc="0.9052734375" width="427.7799987792969" height="45.72999954223633"><defs/><g fill="#000000"><g transform="translate(0, 0)"><path d="M0 45.26L0 9.47L12.33 9.47Q16.50 9.47 18.70 9.99Q21.78 10.69 23.95 12.55Q26.78 14.94 28.19 18.66Q29.59 22.39 29.59 27.17Q29.59 31.25 28.64 34.40Q27.69 37.55 26.20 39.61Q24.71 41.67 22.94 42.86Q21.17 44.04 18.66 44.65Q16.16 45.26 12.92 45.26L0 45.26M4.74 41.04L12.38 41.04Q15.92 41.04 17.93 40.38Q19.95 39.72 21.14 38.53Q22.83 36.84 23.77 34.00Q24.71 31.15 24.71 27.10Q24.71 21.48 22.86 18.47Q21.02 15.45 18.38 14.43Q16.48 13.70 12.26 13.70L4.74 13.70L4.74 41.04ZM53.30 36.91L57.84 37.48Q56.76 41.46 53.86 43.65Q50.95 45.85 46.44 45.85Q40.75 45.85 37.41 42.35Q34.08 38.84 34.08 32.52Q34.08 25.98 37.45 22.36Q40.82 18.75 46.19 18.75Q51.39 18.75 54.69 22.29Q57.98 25.83 57.98 32.25Q57.98 32.64 57.96 33.42L38.62 33.42Q38.87 37.70 41.04 39.97Q43.21 42.24 46.46 42.24Q48.88 42.24 50.59 40.97Q52.29 39.70 53.30 36.91M38.87 29.81L53.34 29.81Q53.05 26.54 51.68 24.90Q49.58 22.36 46.24 22.36Q43.21 22.36 41.15 24.39Q39.09 26.42 38.87 29.81ZM61.60 37.52L65.94 36.84Q66.31 39.45 67.98 40.84Q69.65 42.24 72.66 42.24Q75.68 42.24 77.15 41.00Q78.61 39.77 78.61 38.11Q78.61 36.62 77.32 35.77Q76.42 35.18 72.83 34.28Q67.99 33.06 66.13 32.17Q64.26 31.27 63.29 29.70Q62.33 28.13 62.33 26.22Q62.33 24.49 63.12 23.01Q63.92 21.53 65.28 20.56Q66.31 19.80 68.08 19.27Q69.85 18.75 71.88 18.75Q74.93 18.75 77.23 19.63Q79.54 20.51 80.64 22.01Q81.74 23.51 82.15 26.03L77.86 26.61Q77.56 24.61 76.16 23.49Q74.76 22.36 72.19 22.36Q69.17 22.36 67.87 23.36Q66.58 24.37 66.58 25.71Q66.58 26.56 67.11 27.25Q67.65 27.95 68.80 28.42Q69.46 28.66 72.68 29.54Q77.34 30.79 79.19 31.58Q81.03 32.37 82.08 33.89Q83.13 35.40 83.13 37.65Q83.13 39.84 81.85 41.78Q80.57 43.73 78.15 44.79Q75.73 45.85 72.68 45.85Q67.63 45.85 64.98 43.75Q62.33 41.65 61.60 37.52ZM97.95 41.33L98.58 45.21Q96.73 45.61 95.26 45.61Q92.87 45.61 91.55 44.85Q90.23 44.09 89.70 42.86Q89.16 41.63 89.16 37.67L89.16 22.75L85.94 22.75L85.94 19.34L89.16 19.34L89.16 12.92L93.53 10.28L93.53 19.34L97.95 19.34L97.95 22.75L93.53 22.75L93.53 37.92Q93.53 39.79 93.76 40.33Q93.99 40.87 94.52 41.19Q95.04 41.50 96.02 41.50Q96.75 41.50 97.95 41.33ZM102.27 14.53L102.27 9.47L106.67 9.47L106.67 14.53L102.27 14.53M102.27 45.26L102.27 19.34L106.67 19.34L106.67 45.26L102.27 45.26ZM113.35 45.26L113.35 19.34L117.31 19.34L117.31 23.02Q120.17 18.75 125.56 18.75Q127.91 18.75 129.87 19.59Q131.84 20.43 132.81 21.80Q133.79 23.17 134.18 25.05Q134.42 26.27 134.42 29.32L134.42 45.26L130.03 45.26L130.03 29.49Q130.03 26.81 129.52 25.48Q129.00 24.15 127.70 23.35Q126.39 22.56 124.63 22.56Q121.83 22.56 119.79 24.34Q117.75 26.12 117.75 31.10L117.75 45.26L113.35 45.26ZM139.53 32.30Q139.53 25.10 143.53 21.63Q146.88 18.75 151.68 18.75Q157.03 18.75 160.42 22.25Q163.82 25.76 163.82 31.93Q163.82 36.94 162.32 39.81Q160.82 42.68 157.95 44.26Q155.08 45.85 151.68 45.85Q146.24 45.85 142.88 42.36Q139.53 38.87 139.53 32.30M144.04 32.30Q144.04 37.28 146.22 39.76Q148.39 42.24 151.68 42.24Q154.96 42.24 157.13 39.75Q159.30 37.26 159.30 32.15Q159.30 27.34 157.12 24.87Q154.93 22.39 151.68 22.39Q148.39 22.39 146.22 24.85Q144.04 27.32 144.04 32.30ZM167.21 37.52L171.56 36.84Q171.92 39.45 173.60 40.84Q175.27 42.24 178.27 42.24Q181.30 42.24 182.76 41.00Q184.23 39.77 184.23 38.11Q184.23 36.62 182.93 35.77Q182.03 35.18 178.44 34.28Q173.61 33.06 171.74 32.17Q169.87 31.27 168.91 29.70Q167.94 28.13 167.94 26.22Q167.94 24.49 168.74 23.01Q169.53 21.53 170.90 20.56Q171.92 19.80 173.69 19.27Q175.46 18.75 177.49 18.75Q180.54 18.75 182.85 19.63Q185.16 20.51 186.25 22.01Q187.35 23.51 187.77 26.03L183.47 26.61Q183.18 24.61 181.77 23.49Q180.37 22.36 177.81 22.36Q174.78 22.36 173.49 23.36Q172.19 24.37 172.19 25.71Q172.19 26.56 172.73 27.25Q173.27 27.95 174.41 28.42Q175.07 28.66 178.30 29.54Q182.96 30.79 184.80 31.58Q186.65 32.37 187.70 33.89Q188.75 35.40 188.75 37.65Q188.75 39.84 187.46 41.78Q186.18 43.73 183.76 44.79Q181.35 45.85 178.30 45.85Q173.24 45.85 170.59 43.75Q167.94 41.65 167.21 37.52ZM208.42 45.26L208.42 9.47L221.92 9.47Q225.49 9.47 227.37 9.81Q230.00 10.25 231.79 11.49Q233.57 12.72 234.66 14.94Q235.74 17.16 235.74 19.82Q235.74 24.39 232.84 27.55Q229.93 30.71 222.34 30.71L213.16 30.71L213.16 45.26L208.42 45.26M213.16 26.49L222.41 26.49Q227.00 26.49 228.93 24.78Q230.86 23.07 230.86 19.97Q230.86 17.72 229.72 16.13Q228.59 14.53 226.73 14.01Q225.54 13.70 222.31 13.70L213.16 13.70L213.16 26.49ZM239.58 32.30Q239.58 25.10 243.58 21.63Q246.92 18.75 251.73 18.75Q257.08 18.75 260.47 22.25Q263.87 25.76 263.87 31.93Q263.87 36.94 262.37 39.81Q260.86 42.68 258.00 44.26Q255.13 45.85 251.73 45.85Q246.29 45.85 242.93 42.36Q239.58 38.87 239.58 32.30M244.09 32.30Q244.09 37.28 246.26 39.76Q248.44 42.24 251.73 42.24Q255.00 42.24 257.18 39.75Q259.35 37.26 259.35 32.15Q259.35 27.34 257.17 24.87Q254.98 22.39 251.73 22.39Q248.44 22.39 246.26 24.85Q244.09 27.32 244.09 32.30ZM269.02 55.20L269.02 19.34L273.02 19.34L273.02 22.71Q274.44 20.73 276.22 19.74Q278.00 18.75 280.54 18.75Q283.86 18.75 286.40 20.46Q288.94 22.17 290.23 25.28Q291.53 28.39 291.53 32.10Q291.53 36.08 290.10 39.27Q288.67 42.46 285.95 44.15Q283.23 45.85 280.22 45.85Q278.03 45.85 276.28 44.92Q274.54 43.99 273.41 42.58L273.41 55.20L269.02 55.20M273.00 32.45Q273.00 37.45 275.02 39.84Q277.05 42.24 279.93 42.24Q282.86 42.24 284.95 39.76Q287.04 37.28 287.04 32.08Q287.04 27.12 285.00 24.66Q282.96 22.19 280.13 22.19Q277.32 22.19 275.16 24.82Q273.00 27.44 273.00 32.45ZM313.82 45.26L313.82 41.46Q310.79 45.85 305.59 45.85Q303.30 45.85 301.31 44.97Q299.32 44.09 298.35 42.76Q297.39 41.43 297.00 39.50Q296.73 38.21 296.73 35.40L296.73 19.34L301.12 19.34L301.12 33.72Q301.12 37.16 301.39 38.35Q301.81 40.09 303.15 41.08Q304.49 42.07 306.47 42.07Q308.45 42.07 310.18 41.05Q311.91 40.04 312.63 38.29Q313.35 36.55 313.35 33.23L313.35 19.34L317.75 19.34L317.75 45.26L313.82 45.26ZM324.54 45.26L324.54 9.47L328.93 9.47L328.93 45.26L324.54 45.26ZM352.66 42.07Q350.22 44.14 347.96 45.00Q345.70 45.85 343.12 45.85Q338.84 45.85 336.55 43.76Q334.25 41.67 334.25 38.43Q334.25 36.52 335.12 34.95Q335.99 33.37 337.39 32.42Q338.79 31.47 340.55 30.98Q341.85 30.64 344.46 30.32Q349.78 29.69 352.29 28.81Q352.32 27.91 352.32 27.66Q352.32 24.98 351.07 23.88Q349.39 22.39 346.07 22.39Q342.97 22.39 341.49 23.47Q340.01 24.56 339.31 27.32L335.01 26.73Q335.60 23.97 336.94 22.28Q338.28 20.58 340.82 19.67Q343.36 18.75 346.70 18.75Q350.02 18.75 352.10 19.53Q354.17 20.31 355.15 21.50Q356.13 22.68 356.52 24.49Q356.74 25.61 356.74 28.54L356.74 34.40Q356.74 40.53 357.02 42.15Q357.30 43.77 358.13 45.26L353.54 45.26Q352.86 43.90 352.66 42.07M352.29 32.25Q349.90 33.23 345.12 33.91Q342.41 34.30 341.28 34.79Q340.16 35.28 339.55 36.22Q338.94 37.16 338.94 38.31Q338.94 40.06 340.27 41.24Q341.60 42.41 344.17 42.41Q346.70 42.41 348.68 41.30Q350.66 40.19 351.59 38.26Q352.29 36.77 352.29 33.86L352.29 32.25ZM363.50 45.26L363.50 19.34L367.46 19.34L367.46 23.27Q368.97 20.51 370.25 19.63Q371.53 18.75 373.07 18.75Q375.29 18.75 377.59 20.17L376.07 24.24Q374.46 23.29 372.85 23.29Q371.41 23.29 370.26 24.16Q369.12 25.02 368.63 26.56Q367.90 28.91 367.90 31.69L367.90 45.26L363.50 45.26ZM397.95 36.91L402.49 37.48Q401.42 41.46 398.51 43.65Q395.61 45.85 391.09 45.85Q385.40 45.85 382.07 42.35Q378.74 38.84 378.74 32.52Q378.74 25.98 382.10 22.36Q385.47 18.75 390.84 18.75Q396.04 18.75 399.34 22.29Q402.64 25.83 402.64 32.25Q402.64 32.64 402.61 33.42L383.28 33.42Q383.52 37.70 385.69 39.97Q387.87 42.24 391.11 42.24Q393.53 42.24 395.24 40.97Q396.95 39.70 397.95 36.91M383.52 29.81L398.00 29.81Q397.71 26.54 396.34 24.90Q394.24 22.36 390.89 22.36Q387.87 22.36 385.80 24.39Q383.74 26.42 383.52 29.81ZM406.25 37.52L410.60 36.84Q410.96 39.45 412.63 40.84Q414.31 42.24 417.31 42.24Q420.34 42.24 421.80 41.00Q423.27 39.77 423.27 38.11Q423.27 36.62 421.97 35.77Q421.07 35.18 417.48 34.28Q412.65 33.06 410.78 32.17Q408.91 31.27 407.95 29.70Q406.98 28.13 406.98 26.22Q406.98 24.49 407.78 23.01Q408.57 21.53 409.94 20.56Q410.96 19.80 412.73 19.27Q414.50 18.75 416.53 18.75Q419.58 18.75 421.89 19.63Q424.19 20.51 425.29 22.01Q426.39 23.51 426.81 26.03L422.51 26.61Q422.22 24.61 420.81 23.49Q419.41 22.36 416.85 22.36Q413.82 22.36 412.52 23.36Q411.23 24.37 411.23 25.71Q411.23 26.56 411.77 27.25Q412.30 27.95 413.45 28.42Q414.11 28.66 417.33 29.54Q422.00 30.79 423.84 31.58Q425.68 32.37 426.73 33.89Q427.78 35.40 427.78 37.65Q427.78 39.84 426.50 41.78Q425.22 43.73 422.80 44.79Q420.39 45.85 417.33 45.85Q412.28 45.85 409.63 43.75Q406.98 41.65 406.25 37.52Z"/></g></g></svg>